<?xml version="1.0" encoding="utf-8"?>
<!-- Generator: Adobe Illustrator 22.1.0, SVG Export Plug-In . SVG Version: 6.00 Build 0)  -->
<svg version="1.1" id="Capa_1" xmlns="http://www.w3.org/2000/svg" xmlns:xlink="http://www.w3.org/1999/xlink" x="0px" y="0px"
	 viewBox="0 0 100 100" style="enable-background:new 0 0 100 100;" xml:space="preserve">
<style type="text/css">
	.st0{fill:#0060DB;}
</style>
<g>
	<g>
		<g>
			<g>
				<g>
					<path class="st0" d="M88.8,48.8H70v-2.7h5.1c0.6,0,1.2-0.5,1.2-1.2c0-0.6-0.5-1.2-1.2-1.2H70v-2.7h3.5c1.3,0,2.6-0.5,3.5-1.4
						l7.7-7.7c0.5,0.3,1.1,0.4,1.6,0.4c1,0,1.9-0.4,2.6-1.1c0.7-0.7,1.1-1.6,1.1-2.6c0-1-0.4-1.9-1.1-2.6c-0.7-0.7-1.6-1.1-2.6-1.1
						c-1,0-1.9,0.4-2.6,1.1c-0.7,0.7-1.1,1.6-1.1,2.6c0,0.6,0.1,1.1,0.4,1.6l-7.7,7.7c-0.5,0.5-1.1,0.8-1.8,0.8H70v-2.6
						c0-3.4-2.8-6.2-6.2-6.2h-2.6V19.7c1.5-0.5,2.5-1.9,2.5-3.5c0-2-1.6-3.7-3.7-3.7c-2,0-3.7,1.6-3.7,3.7c0,1.6,1.1,3,2.5,3.5V30
						h-2.7v-5.1c0-0.6-0.5-1.2-1.2-1.2c-0.6,0-1.2,0.5-1.2,1.2V30h-2.7V11.2c0-0.6-0.5-1.2-1.2-1.2c-0.6,0-1.2,0.5-1.2,1.2V30h-2.7
						v-5.1c0-0.6-0.5-1.2-1.2-1.2c-0.6,0-1.2,0.5-1.2,1.2V30h-2.7v-3.5c0-1.3-0.5-2.6-1.4-3.5L32,15.3c0.7-1.4,0.5-3.1-0.7-4.2
						c-1.4-1.4-3.8-1.4-5.2,0c-1.4,1.4-1.4,3.8,0,5.2c0.7,0.7,1.7,1.1,2.6,1.1c0.6,0,1.1-0.1,1.6-0.4l7.7,7.7
						c0.5,0.5,0.8,1.1,0.8,1.8V30h-2.6c-0.5,0-1,0.1-1.5,0.2c-0.6,0.2-1,0.8-0.8,1.4c0.2,0.6,0.8,1,1.4,0.8c0.3-0.1,0.6-0.1,1-0.1
						h27.6c2.1,0,3.8,1.7,3.8,3.8v27.6c0,0.3,0,0.6-0.1,1c-0.2,0.6,0.2,1.3,0.8,1.4c0.1,0,0.2,0,0.3,0c0.5,0,1-0.4,1.1-0.9
						c0.1-0.5,0.2-1,0.2-1.5v-2.6h10.4c0.5,1.5,1.9,2.5,3.5,2.5c2,0,3.7-1.6,3.7-3.7c0-2-1.6-3.7-3.7-3.7c-1.6,0-3,1.1-3.5,2.5H70
						v-2.7h5.1c0.6,0,1.2-0.5,1.2-1.2c0-0.6-0.5-1.2-1.2-1.2H70v-2.7h18.9c0.6,0,1.2-0.5,1.2-1.2C90,49.4,89.5,48.8,88.8,48.8
						L88.8,48.8z M85.4,27.8c0.3-0.3,0.6-0.4,0.9-0.4c0.4,0,0.7,0.1,0.9,0.4c0.3,0.3,0.4,0.6,0.4,0.9c0,0.4-0.1,0.7-0.4,0.9
						C87,29.9,86.7,30,86.3,30c-0.4,0-0.7-0.1-0.9-0.4S85,29.1,85,28.7C85,28.4,85.1,28,85.4,27.8L85.4,27.8z M29.6,14.6
						c-0.5,0.5-1.4,0.5-1.9,0c-0.5-0.5-0.5-1.4,0-1.9c0.3-0.3,0.6-0.4,0.9-0.4c0.3,0,0.7,0.1,0.9,0.4C30.2,13.3,30.2,14.1,29.6,14.6
						L29.6,14.6z M60,17.5c-0.7,0-1.3-0.6-1.3-1.3c0-0.7,0.6-1.3,1.3-1.3c0.7,0,1.3,0.6,1.3,1.3C61.4,16.9,60.8,17.5,60,17.5
						L60,17.5z M83.8,58.7c0.7,0,1.3,0.6,1.3,1.3c0,0.7-0.6,1.3-1.3,1.3c-0.7,0-1.3-0.6-1.3-1.3C82.5,59.3,83.1,58.7,83.8,58.7
						L83.8,58.7z M83.8,58.7"/>
				</g>
			</g>
		</g>
		<path class="st0" d="M73.9,83.7c-1.1-1.1-2.9-1.4-4.2-0.7l-7.7-7.7c-0.5-0.5-0.8-1.1-0.8-1.8V70h2.6c0.5,0,1-0.1,1.5-0.2
			c0.6-0.2,1-0.8,0.8-1.4c-0.2-0.6-0.8-1-1.4-0.8c-0.3,0.1-0.6,0.1-1,0.1H36.2c-2.1,0-3.8-1.7-3.8-3.8V36.2c0-0.3,0-0.6,0.1-1
			c0.2-0.6-0.2-1.3-0.8-1.4c-0.6-0.2-1.3,0.2-1.4,0.8c-0.1,0.5-0.2,1-0.2,1.5v2.6H19.7c-0.5-1.5-1.9-2.5-3.5-2.5
			c-2,0-3.7,1.6-3.7,3.7c0,2,1.6,3.7,3.7,3.7c1.6,0,3-1.1,3.5-2.5H30v2.7h-5.1c-0.6,0-1.2,0.5-1.2,1.2c0,0.6,0.5,1.2,1.2,1.2H30v2.7
			H11.2c-0.6,0-1.2,0.5-1.2,1.2c0,0.6,0.5,1.2,1.2,1.2H30v2.7h-5.1c-0.6,0-1.2,0.5-1.2,1.2c0,0.6,0.5,1.2,1.2,1.2H30v2.7h-3.5
			c-1.3,0-2.6,0.5-3.5,1.4L15.3,68c-0.5-0.3-1.1-0.4-1.6-0.4c-1,0-1.9,0.4-2.6,1.1c-0.7,0.7-1.1,1.6-1.1,2.6c0,1,0.4,1.9,1.1,2.6
			c0.7,0.7,1.6,1.1,2.6,1.1c1,0,1.9-0.4,2.6-1.1c0.7-0.7,1.1-1.6,1.1-2.6c0-0.6-0.1-1.1-0.4-1.6l7.7-7.7c0.5-0.5,1.1-0.8,1.8-0.8H30
			v2.6c0,3.4,2.8,6.2,6.2,6.2h2.6v10.4c-1.5,0.5-2.5,1.9-2.5,3.5c0,2,1.6,3.7,3.7,3.7c2,0,3.7-1.6,3.7-3.7c0-1.6-1.1-3-2.5-3.5V70
			h2.7v5.1c0,0.6,0.5,1.2,1.2,1.2c0.6,0,1.2-0.5,1.2-1.2V70h2.7v18.9c0,0.6,0.5,1.2,1.2,1.2c0.6,0,1.2-0.5,1.2-1.2V70h2.7v5.1
			c0,0.6,0.5,1.2,1.2,1.2c0.6,0,1.2-0.5,1.2-1.2V70h2.7v3.5c0,1.3,0.5,2.6,1.4,3.5l7.7,7.7c-0.7,1.4-0.5,3.1,0.7,4.2
			c0.7,0.7,1.7,1.1,2.6,1.1c0.9,0,1.9-0.4,2.6-1.1C75.3,87.5,75.3,85.2,73.9,83.7L73.9,83.7z M16.2,41.3c-0.7,0-1.3-0.6-1.3-1.3
			c0-0.7,0.6-1.3,1.3-1.3c0.7,0,1.3,0.6,1.3,1.3C17.5,40.7,16.9,41.3,16.2,41.3L16.2,41.3z M14.6,72.2c-0.3,0.3-0.6,0.4-0.9,0.4
			c-0.4,0-0.7-0.1-0.9-0.4c-0.3-0.3-0.4-0.6-0.4-0.9s0.1-0.7,0.4-0.9c0.3-0.3,0.6-0.4,0.9-0.4c0.4,0,0.7,0.1,0.9,0.4
			c0.3,0.3,0.4,0.6,0.4,0.9S14.9,72,14.6,72.2L14.6,72.2z M41.3,83.8c0,0.7-0.6,1.3-1.3,1.3c-0.7,0-1.3-0.6-1.3-1.3
			c0-0.7,0.6-1.3,1.3-1.3C40.7,82.5,41.3,83.1,41.3,83.8L41.3,83.8z M72.2,87.3c-0.5,0.5-1.4,0.5-1.9,0c-0.5-0.5-0.5-1.4,0-1.9
			c0.3-0.3,0.6-0.4,0.9-0.4c0.3,0,0.7,0.1,0.9,0.4C72.8,85.9,72.8,86.7,72.2,87.3L72.2,87.3z M72.2,87.3"/>
		<path class="st0" d="M62.4,46.9c0-2.5-1.8-4.6-4.3-5.3c0.1-0.3,0.1-0.6,0.1-0.9c0-2.4-2.1-4.3-4.7-4.3c-1.4,0-2.7,0.6-3.5,1.5
			c-0.9-0.9-2.1-1.5-3.5-1.5c-2.6,0-4.7,1.9-4.7,4.3c0,0.3,0,0.6,0.1,0.9c-2.5,0.7-4.3,2.8-4.3,5.3c0,1.2,0.4,2.4,1.2,3.3
			c-0.8,1-1.2,2.2-1.2,3.6c0,2,1.1,3.9,2.8,5v0c0,2.7,2.4,4.9,5.4,4.9c1.7,0,3.2-0.7,4.2-1.9c1,1.1,2.5,1.9,4.2,1.9
			c2.9,0,5.2-2,5.4-4.6c1.7-1,2.8-2.8,2.8-4.7c0-1.4-0.6-2.7-1.6-3.8C61.8,49.6,62.4,48.3,62.4,46.9L62.4,46.9z M58.3,51.7
			c1.1,0.6,1.8,1.6,1.8,2.7c0,0.8-0.4,1.6-1,2.2c-0.6-1.1-1.7-2-3.1-2.5c-0.6-0.2-1.3,0.1-1.5,0.8c-0.2,0.6,0.1,1.3,0.8,1.5
			c1.2,0.4,2,1.4,2,2.4c0,1.4-1.4,2.6-3.1,2.6s-3.1-1.2-3.1-2.6v-7.5c0-1.4,1.4-2.6,3.1-2.6c0.6,0,1.2-0.5,1.2-1.2
			c0-0.6-0.5-1.2-1.2-1.2c-1.1,0-2.2,0.3-3.1,0.9v-1.5c0-0.6-0.5-1.2-1.2-1.2c-0.6,0-1.2,0.5-1.2,1.2v6.5c-0.4-0.2-0.8-0.5-1.3-0.6
			c-0.6-0.2-1.3,0.1-1.5,0.8c-0.2,0.6,0.1,1.3,0.8,1.5c1.2,0.4,2,1.4,2,2.4v2.5c0,1.4-1.4,2.6-3.1,2.6c-1.7,0-3.1-1.2-3.1-2.6
			c0-0.6,0.3-1.2,0.7-1.7c0.5-0.5,0.5-1.2,0-1.7c-0.5-0.5-1.2-0.5-1.7,0c-0.3,0.3-0.5,0.6-0.7,0.9c-0.7-0.7-1.2-1.6-1.2-2.6
			c0-1.7,1.4-3.3,3.3-3.7c0.6-0.1,1-0.8,0.9-1.4c-0.1-0.6-0.8-1-1.4-0.9c-0.8,0.2-1.5,0.5-2.1,0.9c-0.4-0.5-0.6-1.1-0.6-1.8
			c0-1.8,1.7-3.2,3.7-3.2c0,0,0,0,0,0c0.3,0,0.5-0.1,0.8-0.3c0.4-0.4,0.5-1,0.2-1.5c0,0,0,0,0,0c0,0,0,0,0,0c0,0,0-0.1-0.1-0.1
			c0,0,0,0,0,0c-0.2-0.2-0.4-0.6-0.4-1.1c0-1.1,1.1-2,2.4-2c1.3,0,2.4,0.9,2.4,2c0,0.6,0.5,1.2,1.2,1.2c0.6,0,1.2-0.5,1.2-1.2
			c0-1.1,1.1-2,2.4-2c1.3,0,2.4,0.9,2.4,2c0,0.3-0.1,0.5-0.2,0.7c-0.7,0.1-1.3,0.2-1.9,0.5c-0.6,0.3-0.9,0.9-0.6,1.5
			c0.3,0.6,0.9,0.9,1.5,0.6c0.5-0.2,1.1-0.3,1.6-0.3c0,0,0,0,0,0c0,0,0,0,0,0c2.1,0,3.7,1.4,3.7,3.2c0,1.1-0.7,2.1-1.8,2.7
			c-0.4,0.2-0.6,0.6-0.6,1C57.7,51.1,57.9,51.5,58.3,51.7L58.3,51.7z M58.3,51.7"/>
	</g>
</g>
</svg>
